<svg xmlns="http://www.w3.org/2000/svg" width="59" height="22" viewBox="0 0 59 22">
  <g id="Group_4" data-name="Group 4" transform="translate(-72 -50)">
    <path id="Path_33" data-name="Path 33" d="M72,60.989h3.6v2.432a5.662,5.662,0,0,1,4.914-2.758c3.544,0,5.6,2.372,5.6,6.019v9.962h-3.6V67.749c0-2.431-1.221-3.824-3.366-3.824-2.084,0-3.543,1.452-3.543,3.884v8.836H72Z" transform="translate(0 -5)" fill="#090906"/>
    <path id="Path_34" data-name="Path 34" d="M102.766,68.905v-.058a4.849,4.849,0,0,0-4.825-5.041,4.707,4.707,0,0,0-4.736,4.98v.06a4.861,4.861,0,0,0,4.8,5.04A4.732,4.732,0,0,0,102.766,68.905Zm-13.164,0v-.058a8.387,8.387,0,0,1,16.767-.06v.06A8.2,8.2,0,0,1,97.941,77,8.116,8.116,0,0,1,89.6,68.905Z" transform="translate(0 -5)" fill="#090906"/>
    <path id="Path_35" data-name="Path 35" d="M110.241,60.989h3.6V76.644h-3.6Zm-.149-5.811h3.872v3.409h-3.872V55.178Z" transform="translate(0 -5)" fill="#090906"/>
    <path id="Path_36" data-name="Path 36" d="M118.759,55h3.6V76.644h-3.6Z" transform="translate(0 -5)" fill="#090906"/>
    <path id="Path_37" data-name="Path 37" d="M127.277,60.989h3.6V76.644h-3.6Zm-.149-5.811H131v3.409h-3.872V55.178Z" transform="translate(0 -5)" fill="#090906"/>
  </g>
</svg>
