<svg xmlns="http://www.w3.org/2000/svg" xmlns:xlink="http://www.w3.org/1999/xlink" width="402.004" height="207.836" viewBox="0 0 402.004 207.836">
  <defs>
    <clipPath id="clip-path">
      <rect id="Rectangle_9" data-name="Rectangle 9" width="17.239" height="39.368" fill="#fff"/>
    </clipPath>
    <clipPath id="clip-path-2">
      <rect id="Rectangle_17" data-name="Rectangle 17" width="402.004" height="197.146" fill="#fff"/>
    </clipPath>
  </defs>
  <g id="Group_255" data-name="Group 255" transform="translate(-120 -752.608)">
    <g id="Group_195" data-name="Group 195" transform="translate(191.112 752.608)">
      <g id="Group_2" data-name="Group 2" transform="translate(0 0)">
        <g id="Group_1" data-name="Group 1" clip-path="url(#clip-path)">
          <path id="Path_38" data-name="Path 38" d="M15.185,42.4l-2.5-3.715,2.731-4.275a9.2,9.2,0,0,1,1.032,3.956A7.994,7.994,0,0,1,15.185,42.4m-4.578,4.287L9.086,44.3l3.048-5.015,2.849,4.231a7.9,7.9,0,0,1-4.378,3.166M8.62,46.96h0a7.406,7.406,0,0,1-1.156-.094l.014-.027h0l1.142-1.792h0l1.142,1.792h0l.014.027a7.406,7.406,0,0,1-1.156.094M2.255,43.521,5.1,39.289,8.153,44.3l-1.52,2.382a7.9,7.9,0,0,1-4.378-3.166M.793,38.365a9.2,9.2,0,0,1,1.032-3.956l2.731,4.275L2.054,42.4A8,8,0,0,1,.793,38.365m4.481-9.878,2.876,4.5L5.03,37.955,2.5,34c.809-1.541,2.162-4.278,2.77-5.511m3.345-3.453h0c.466.586,1.419,1.8,2.5,3.306l-2.5,3.911h0l-2.5-3.911c1.078-1.5,2.031-2.72,2.5-3.306m3.032,13.522L8.619,43.546,5.588,38.557l3.031-4.823Zm.314-10.07c.608,1.234,1.962,3.97,2.77,5.511l-2.526,3.956L9.088,32.99Zm3.7,14.628a8.964,8.964,0,0,0,1.572-4.75A10.609,10.609,0,0,0,15.8,33.423a.4.4,0,0,0-.334-.211.364.364,0,0,0-.222.057c-1.087-2.1-2.863-5.724-2.883-5.764a.4.4,0,0,0-.69-.039l-.1.155c-1.455-2.01-2.64-3.455-2.652-3.47a.4.4,0,0,0-.306-.145h0a.4.4,0,0,0-.306.145c-.012.015-1.2,1.46-2.652,3.47l-.1-.155a.4.4,0,0,0-.69.039c-.019.04-1.8,3.666-2.883,5.764a.362.362,0,0,0-.221-.057.4.4,0,0,0-.334.211A10.609,10.609,0,0,0,0,38.365a8.964,8.964,0,0,0,1.572,4.75l-.154.229a.4.4,0,0,0,0,.445c.1.153.284.4.526.7l0-.007a8.537,8.537,0,0,0,6.275,3.275V56.37a.4.4,0,0,0,.794,0V47.753a8.538,8.538,0,0,0,6.274-3.275l0,.007c.243-.3.422-.543.526-.7a.4.4,0,0,0,0-.445Z" transform="translate(0 -17.398)" fill="#fff"/>
          <path id="Path_39" data-name="Path 39" d="M1.01,4.132A15.977,15.977,0,0,1,6.088,6.547a.376.376,0,0,0,.242.087.379.379,0,0,0,.36-.5,9.749,9.749,0,0,1-.4-2.72A5.507,5.507,0,0,1,7.64,5.169a.378.378,0,0,0,.347.226.5.5,0,0,0,.053,0,.381.381,0,0,0,.323-.324A8.844,8.844,0,0,1,9.146,2.7a8.82,8.82,0,0,1,.782,2.372.383.383,0,0,0,.325.324.48.48,0,0,0,.052,0,.379.379,0,0,0,.348-.226A5.482,5.482,0,0,1,12,3.413a9.785,9.785,0,0,1-.4,2.72.38.38,0,0,0,.6.414,15.977,15.977,0,0,1,5.078-2.415.38.38,0,1,0-.2-.734,18.138,18.138,0,0,0-4.507,1.94A10.6,10.6,0,0,0,12.742,2.8a11.837,11.837,0,0,1,1.6-1.018.38.38,0,1,0-.338-.68,11.689,11.689,0,0,0-1.36.823A7.705,7.705,0,0,0,12.254.414a.38.38,0,0,0-.711.268,7.135,7.135,0,0,1,.407,1.766,8.112,8.112,0,0,0-1.488,1.539,9.615,9.615,0,0,0-.871-2.076A6.468,6.468,0,0,1,10.628.658.38.38,0,0,0,10.111.1a7.12,7.12,0,0,0-.965,1.11A7.155,7.155,0,0,0,8.182.1a.38.38,0,1,0-.517.557A6.466,6.466,0,0,1,8.7,1.911,9.671,9.671,0,0,0,7.83,3.987,8.108,8.108,0,0,0,6.343,2.448,7.145,7.145,0,0,1,6.748.682.38.38,0,0,0,6.038.414a7.765,7.765,0,0,0-.393,1.508A11.692,11.692,0,0,0,4.285,1.1a.38.38,0,0,0-.338.68A11.829,11.829,0,0,1,5.551,2.8a10.492,10.492,0,0,0,.161,2.543A18.1,18.1,0,0,0,1.2,3.4a.38.38,0,0,0-.195.734" transform="translate(-0.527 0)" fill="#fff"/>
        </g>
      </g>
    </g>
    <g id="Group_18" data-name="Group 18" transform="translate(120 763.298)">
      <path id="Path_2468" data-name="Path 2468" d="M118.133-.047h8.2v7.11h-8.2Z" transform="translate(169.701 27.75)" fill="#fff"/>
      <path id="Path_2469" data-name="Path 2469" d="M117.861-.307h8.2V6.8h-8.2Z" transform="translate(212.542 27.645)" fill="#fff"/>
      <g id="Group_7" data-name="Group 7">
        <g id="Group_6" data-name="Group 6" clip-path="url(#clip-path-2)">
          <path id="Path_50" data-name="Path 50" d="M104.573,5.244H93.084V36.352H105.64c9.688,0,17.065-4.755,17.065-15.732,0-10.222-6.933-15.377-18.132-15.377m.089,28.886H101.2V7.466H104c6.311,0,10.088,4.488,10.088,13.155,0,10.088-3.777,13.51-9.421,13.51" transform="translate(160.599 -1.473)" fill="#fff"/>
          <path id="Path_51" data-name="Path 51" d="M179.715,5.245H165.976v4.861c0,.15.007.306.007.472V31.021c0,.165,0,.321-.007.472v4.861h8.157V31.534c-.011-.163-.018-.334-.018-.513v-6.4h5.6c7.244,0,12.576-3.289,12.576-9.688s-5.333-9.688-12.576-9.688m-3.467,17.287h-2.133V7.333h2.133c5.244,0,7.733,2.533,7.733,7.6s-2.489,7.6-7.733,7.6" transform="translate(138.717 -1.474)" fill="#fff"/>
          <path id="Path_52" data-name="Path 52" d="M331.525,12.91h5.647v3.827a8.867,8.867,0,0,1,7.7-4.34c5.553,0,8.774,3.733,8.774,9.473V37.551H348v-14c0-3.826-1.913-6.02-5.273-6.02-3.267,0-5.554,2.287-5.554,6.114V37.551h-5.647Z" transform="translate(-233.332 -1.471)" fill="#fff"/>
          <path id="Path_53" data-name="Path 53" d="M369.882,25.369v-.093a13.141,13.141,0,0,1,26.275-.093v.093a12.884,12.884,0,0,1-13.208,12.834,12.744,12.744,0,0,1-13.067-12.741m20.628,0v-.093a7.616,7.616,0,0,0-7.561-7.933c-4.526,0-7.42,3.546-7.42,7.84v.093a7.635,7.635,0,0,0,7.514,7.933c4.572,0,7.467-3.593,7.467-7.841" transform="translate(-244.108 -1.471)" fill="#fff"/>
          <path id="Path_54" data-name="Path 54" d="M414.534.39H420.6V5.757h-6.067Zm.234,9.147h5.647V34.177h-5.647Z" transform="translate(-256.652 1.902)" fill="#fff"/>
          <rect id="Rectangle_14" data-name="Rectangle 14" width="5.647" height="34.069" transform="translate(171.463 2.012)" fill="#fff"/>
          <path id="Path_55" data-name="Path 55" d="M451.659.39h6.067V5.757h-6.067Zm.234,9.147h5.647V34.177h-5.647Z" transform="translate(-267.082 1.902)" fill="#fff"/>
          <line id="Line_1" data-name="Line 1" x1="30.304" y2="26.667" transform="translate(183.144 8.863)" fill="#696559"/>
          <rect id="Rectangle_15" data-name="Rectangle 15" width="40.366" height="2.062" transform="translate(206.33 34.753) rotate(-41.338)" fill="#fff"/>
          <line id="Line_2" data-name="Line 2" x2="30.304" y2="26.667" transform="translate(183.144 8.863)" fill="#696559"/>
          <rect id="Rectangle_16" data-name="Rectangle 16" width="2.062" height="40.366" transform="matrix(0.661, -0.751, 0.751, 0.661, 206.332, 9.637)" fill="#fff"/>
        </g>
      </g>
    </g>
  </g>
</svg>
